<svg width="50" height="39" viewBox="0 0 50 39" fill="none" xmlns="http://www.w3.org/2000/svg">
<path d="M24.5084 33.8782C24.5084 36.2311 22.0208 38.1384 18.9519 38.1384C15.8831 38.1384 13.3953 36.2311 13.3953 33.8782C13.3953 31.5253 15.8831 29.6181 18.9519 29.6181C22.0208 29.6181 24.5084 31.5253 24.5084 33.8782ZM20.341 33.8782C20.341 33.2901 19.7191 32.8132 18.9519 32.8132C18.1847 32.8132 17.5627 33.2901 17.5627 33.8782C17.5627 34.4664 18.1847 34.9433 18.9519 34.9433C19.7191 34.9433 20.341 34.4664 20.341 33.8782ZM43.9564 33.8782C43.9564 36.2311 41.4687 38.1384 38.3998 38.1384C35.3309 38.1384 32.8433 36.2311 32.8433 33.8782C32.8433 31.5253 35.3309 29.6181 38.3998 29.6181C41.4687 29.6181 43.9564 31.5253 43.9564 33.8782ZM39.789 33.8782C39.789 33.2901 39.1669 32.8132 38.3998 32.8132C37.6328 32.8132 37.0107 33.2901 37.0107 33.8782C37.0107 34.4664 37.6328 34.9433 38.3998 34.9433C39.1669 34.9433 39.789 34.4664 39.789 33.8782Z" fill="white"/>
<path d="M0.893066 2.45938C0.893066 1.57708 1.82598 0.861816 2.97678 0.861816H4.52778C7.16845 0.861816 8.74954 2.22292 9.65368 3.4882C10.2563 4.33161 11.9027 8.49655 12.2437 9.38218L14.9485 16.3834C14.9632 16.4213 14.9759 16.4592 14.9868 16.4973L17.0747 22.3302C17.4886 23.4866 18.8597 24.2881 20.4237 24.2881H36.9493C38.5004 24.2881 39.8634 23.4994 40.2891 22.3557L45.3455 8.22294C47.6521 8.22294 49.513 8.31714 49.513 8.31714L44.2965 23.2318C43.3607 25.7481 40.3619 27.4833 36.9493 27.4833H20.4237C16.9829 27.4833 13.9665 25.7198 13.0559 23.1758L10.943 17.2731L7.4463 8.22294L7.44064 8.2071C7.00806 6.99757 6.60207 5.86764 5.99879 5.02338C5.41294 4.2035 4.94594 4.05695 4.52778 4.05695H2.97678C1.82598 4.05695 0.893066 3.34169 0.893066 2.45938Z" fill="white"/>
</svg>
