<svg width="141" height="75" viewBox="0 0 141 75" fill="none" xmlns="http://www.w3.org/2000/svg">
<g clip-path="url(#clip0_1_2615)">
<path fill-rule="evenodd" clip-rule="evenodd" d="M85.1261 53.0963C77.9309 58.3949 67.5017 61.2219 58.5223 61.2219C45.9319 61.2219 34.5972 56.5694 26.0221 48.8314C25.3484 48.223 25.952 47.3937 26.7604 47.8676C36.0147 53.247 47.4571 56.4832 59.2769 56.4832C67.2483 56.4832 76.0175 54.8355 84.0805 51.4161C85.2986 50.8992 86.3173 52.2131 85.1261 53.0963Z" fill="#FF9900"/>
<path fill-rule="evenodd" clip-rule="evenodd" d="M88.117 49.6769C87.2008 48.503 82.0374 49.1223 79.7198 49.3969C79.0138 49.483 78.9059 48.8691 79.5419 48.4275C83.6543 45.5359 90.4022 46.3706 91.1891 47.3399C91.9761 48.3145 90.9843 55.0725 87.1199 58.2979C86.527 58.7934 85.9611 58.5295 86.2252 57.8726C87.093 55.7078 89.0386 50.8561 88.117 49.6769Z" fill="#FF9900"/>
<path fill-rule="evenodd" clip-rule="evenodd" d="M79.8817 28.0153V25.2046C79.8817 24.7792 80.2051 24.4939 80.5931 24.4939H93.1889C93.5931 24.4939 93.9165 24.7847 93.9165 25.2046V27.6115C93.9112 28.0153 93.5716 28.543 92.9679 29.3776L86.441 38.6874C88.8663 38.6281 91.4264 38.9888 93.6254 40.2272C94.1213 40.5072 94.256 40.9165 94.2938 41.3203V44.3195C94.2938 44.7287 93.8411 45.2079 93.3667 44.9602C89.4916 42.9302 84.3443 42.7095 80.0596 44.9818C79.623 45.2187 79.1649 44.7448 79.1649 44.3357V41.4873C79.1649 41.0296 79.1703 40.2488 79.6284 39.5542L87.1902 28.7207H80.6093C80.2051 28.7207 79.8817 28.4353 79.8817 28.0153Z" fill="white"/>
<path fill-rule="evenodd" clip-rule="evenodd" d="M33.9344 45.5524H30.1024C29.7358 45.5254 29.4448 45.2508 29.4179 44.9009V25.2529C29.4179 24.86 29.7467 24.5476 30.1562 24.5476H33.7297C34.1015 24.5638 34.3979 24.8491 34.4249 25.2045V27.7729H34.495C35.4274 25.2907 37.1791 24.1331 39.5397 24.1331C41.9382 24.1331 43.4364 25.2907 44.5145 27.7729C45.4414 25.2907 47.5488 24.1331 49.8071 24.1331C51.4133 24.1331 53.1703 24.7953 54.2428 26.2814C55.4555 27.9345 55.2075 30.3359 55.2075 32.4412L55.2022 44.8417C55.2022 45.2347 54.8734 45.5524 54.4638 45.5524H50.6372C50.2544 45.5254 49.9472 45.2185 49.9472 44.8417V34.4281C49.9472 33.5989 50.0227 31.5312 49.8395 30.7451C49.5538 29.426 48.6969 29.0544 47.5865 29.0544C46.6595 29.0544 45.6894 29.6736 45.296 30.6644C44.9025 31.6551 44.9402 33.3135 44.9402 34.4281V44.8417C44.9402 45.2347 44.6115 45.5524 44.2018 45.5524H40.3751C39.987 45.5254 39.6853 45.2185 39.6853 44.8417L39.6798 34.4281C39.6798 32.2367 40.041 29.0113 37.3192 29.0113C34.565 29.0113 34.6729 32.1559 34.6729 34.4281V44.8417C34.6729 45.2347 34.3441 45.5524 33.9344 45.5524Z" fill="white"/>
<path fill-rule="evenodd" clip-rule="evenodd" d="M104.76 24.1331C110.446 24.1331 113.524 29.0113 113.524 35.2143C113.524 41.2071 110.123 45.9616 104.76 45.9616C99.1766 45.9616 96.1369 41.0833 96.1369 35.0043C96.1369 28.8875 99.2144 24.1331 104.76 24.1331ZM104.793 28.1445C101.969 28.1445 101.791 31.9889 101.791 34.385C101.791 36.7864 101.753 41.9125 104.76 41.9125C107.73 41.9125 107.87 37.7772 107.87 35.2573C107.87 33.5989 107.8 31.6174 107.299 30.0451C106.868 28.6775 106.011 28.1445 104.793 28.1445Z" fill="white"/>
<path fill-rule="evenodd" clip-rule="evenodd" d="M120.897 45.5524H117.082C116.699 45.5254 116.392 45.2185 116.392 44.8417L116.386 25.1883C116.419 24.8276 116.737 24.5476 117.125 24.5476H120.677C121.011 24.5638 121.286 24.7899 121.361 25.0968V28.1013H121.431C122.503 25.4145 124.007 24.1331 126.654 24.1331C128.373 24.1331 130.049 24.7522 131.127 26.4484C132.13 28.0206 132.13 30.6644 132.13 32.565V44.9332C132.087 45.2778 131.768 45.5524 131.391 45.5524H127.548C127.198 45.5254 126.907 45.267 126.87 44.9332V34.2612C126.87 32.1127 127.117 28.9683 124.47 28.9683C123.539 28.9683 122.682 29.5928 122.255 30.5406C121.717 31.7412 121.647 32.9367 121.647 34.2612V44.8417C121.641 45.2347 121.307 45.5524 120.897 45.5524Z" fill="white"/>
<path fill-rule="evenodd" clip-rule="evenodd" d="M69.8411 36.1672C69.8411 37.6587 69.8788 38.9025 69.1243 40.2272C68.5152 41.3041 67.5451 41.9663 66.4725 41.9663C65.0011 41.9663 64.1387 40.8463 64.1387 39.1933C64.1387 35.9304 67.0654 35.3381 69.8411 35.3381V36.1672ZM73.7056 45.4986C73.4522 45.7247 73.0857 45.7409 72.8001 45.5901C71.5281 44.5347 71.2963 44.0448 70.601 43.0379C68.499 45.1808 67.0061 45.8216 64.2843 45.8216C61.0559 45.8216 58.5497 43.8348 58.5497 39.8557C58.5497 36.7489 60.2313 34.6327 62.635 33.5989C64.7155 32.6836 67.6205 32.522 69.8411 32.2689V31.7736C69.8411 30.8636 69.9112 29.7867 69.3722 29.0006C68.9087 28.2952 68.014 28.0045 67.2217 28.0045C65.7611 28.0045 64.4622 28.7529 64.1442 30.3036C64.0795 30.6483 63.8262 30.9875 63.4758 31.0036L59.7624 30.6051C59.4497 30.5352 59.0995 30.282 59.191 29.8029C60.0426 25.3014 64.1173 23.9446 67.7607 23.9446C69.6256 23.9446 72.0616 24.4399 73.533 25.8507C75.3979 27.5899 75.22 29.9105 75.22 32.4358V38.4018C75.22 40.1949 75.9638 40.981 76.6645 41.9502C76.907 42.2948 76.9609 42.7094 76.6483 42.9678C75.8668 43.6194 74.4762 44.8309 73.7109 45.5093L73.7056 45.4986Z" fill="white"/>
<path fill-rule="evenodd" clip-rule="evenodd" d="M19.6032 36.1672C19.6032 37.6587 19.6409 38.9025 18.8864 40.2271C18.2773 41.3041 17.3126 41.9663 16.2346 41.9663C14.7632 41.9663 13.9063 40.8463 13.9063 39.1933C13.9063 35.9304 16.8329 35.3381 19.6032 35.3381V36.1672ZM23.4676 45.4986C23.2143 45.7247 22.8478 45.7409 22.5621 45.5901C21.2901 44.5347 21.0637 44.0447 20.3632 43.0379C18.2611 45.1808 16.7736 45.8216 14.0464 45.8216C10.8234 45.8216 8.31177 43.8347 8.31177 39.8556C8.31177 36.7487 9.99874 34.6327 12.3972 33.5989C14.4776 32.6836 17.3826 32.522 19.6032 32.2689V31.7736C19.6032 30.8636 19.6732 29.7867 19.1397 29.0005C18.6708 28.2952 17.7761 28.0045 16.9892 28.0045C15.5286 28.0045 14.2243 28.7529 13.9063 30.3036C13.8416 30.6483 13.5883 30.9875 13.2433 31.0036L9.52445 30.6051C9.21185 30.5352 8.86691 30.282 8.95314 29.8029C9.81011 25.3014 13.8793 23.9446 17.5228 23.9446C19.3876 23.9446 21.8237 24.4399 23.2952 25.8507C25.1599 27.5899 24.9821 29.9105 24.9821 32.4358V38.4018C24.9821 40.1948 25.7259 40.981 26.4265 41.9502C26.6745 42.2948 26.7284 42.7094 26.4158 42.9678C25.6342 43.6194 24.2437 44.8309 23.4783 45.5093L23.4676 45.4986Z" fill="white"/>
</g>
<defs>
<clipPath id="clip0_1_2615">
<rect width="124.376" height="54.2205" fill="white" transform="translate(8.31177 10.3896)"/>
</clipPath>
</defs>
</svg>
